<svg width="154" height="150" viewBox="0 0 154 150" fill="none" xmlns="http://www.w3.org/2000/svg">
<path d="M153.5 16.0515V140.012C153.5 145.202 149.29 149.412 144.1 149.412H122.48C117.35 149.412 113.18 145.312 113.09 140.202H40.41C40.31 145.312 36.15 149.412 31.02 149.412H9.4C4.21 149.412 0 145.202 0 140.012V16.0515C0 10.8615 4.21 6.65154 9.4 6.65154C27.46 3.05154 49.91 0.0815437 75.73 0.00154371C102.44 -0.0784563 125.61 2.96154 144.11 6.65154C144.74 6.65154 148.07 6.71154 150.76 9.40154C152.46 11.1015 153.51 13.4515 153.51 16.0515H153.5Z" fill="#424242"/>
<path d="M137.97 113.602C120.15 116.302 99.2 118.262 75.73 118.212C53.11 118.152 32.86 116.232 15.54 113.602C14.91 113.602 11.58 113.542 8.89001 110.852C7.19001 109.152 6.14001 106.802 6.14001 104.202V23.7315C6.14001 18.5415 10.35 14.3315 15.54 14.3315H137.97C143.16 14.3315 147.37 18.5415 147.37 23.7315V104.202C147.37 109.392 143.16 113.602 137.97 113.602Z" fill="white"/>
<path d="M36.33 124.852C36.06 127.032 28.48 128.772 22 126.902C19.29 126.122 14.61 124.082 14.84 122.292C15.14 119.982 23.73 118.152 30.7 120.752C31.21 120.942 36.56 122.942 36.33 124.842V124.852Z" fill="white"/>
<path d="M116.15 124.852C116.42 127.032 124 128.772 130.48 126.902C133.19 126.122 137.87 124.082 137.64 122.292C137.34 119.982 128.75 118.152 121.78 120.752C121.27 120.942 115.92 122.942 116.15 124.842V124.852Z" fill="white"/>
</svg>
